PathFileType	3	(X/Y/Z)	D:\Vicon Setup\UG\Test1\New Session\NewSession16.trc
DataRate	CameraRate	NumFrames	NumMarkers	Units	OrigDataRate	OrigDataStartFrame	OrigNumFrames
100.0	100.0	8	27	mm	100.0	550	357	
Frame#	Time	Sternum			LShoulder			RShoulder			LASIS			RASIS			RPSIS			LPSIS			RKneeLateral			RKneeMedial			RFibulaHead			RMidShank			RAnkleLateral			RAnkleMedial			RHeel			RMT5			RMT2			RToe			LKneeLateral			LKneeMedial			LFibulaHead			LMidShank			LAnkleLateral			LAnkleMedial			LHeel			LMT5			LMT2			LToe			
		X1	Y1	Z1	X2	Y2	Z2	X3	Y3	Z3	X4	Y4	Z4	X5	Y5	Z5	X6	Y6	Z6	X7	Y7	Z7	X8	Y8	Z8	X9	Y9	Z9	X10	Y10	Z10	X11	Y11	Z11	X12	Y12	Z12	X13	Y13	Z13	X14	Y14	Z14	X15	Y15	Z15	X16	Y16	Z16	X17	Y17	Z17	X18	Y18	Z18	X19	Y19	Z19	X20	Y20	Z20	X21	Y21	Z21	X22	Y22	Z22	X23	Y23	Z23	X24	Y24	Z24	X25	Y25	Z25	X26	Y26	Z26	X27	Y27	Z27	
550	5.49	-271.07797	1366.5197	310.82214	-71.649384	1439.3536	241.72939	-435.60086	1397.1074	191.099	-124.33192	993.73981	285.58124	-382.11185	997.19641	262.45557	-296.90756	1008.5722	96.738426	-167.31853	1010.345	107.31149	-416.91064	525.08411	313.28702	-289.59488	509.82434	351.37003	-420.23181	442.54184	319.4938	-328.0466	284.30902	339.0011	-294.66653	123.20839	318.14203	-368.06418	95.599693	257.46106	-300.7164	65.773247	196.00604	-421.43732	34.36586	405.17426	-357.77896	58.26804	420.33582	-362.71927	38.492558	463.51422	-77.364059	535.29883	397.74814	-202.91229	511.93182	392.8905	-62.821098	475.40259	384.85785	-133.38521	316.11389	375.5043	-50.072895	120.2649	298.52322	-138.06995	137.69551	322.82001	-93.260712	93.286842	216.92062	-34.853203	45.894825	427.34784	-103.86332	75.667107	434.66525	-117.89014	67.937943	468.22034
551	5.5	-269.53781	1366.3864	315.23441	-69.41993	1439.2014	247.06493	-433.24567	1396.9164	194.53479	-124.29383	993.16351	290.64316	-380.86664	996.47186	265.66922	-293.99585	1008.0634	100.72427	-164.47961	1009.9235	112.88499	-416.70111	525.38806	315.78177	-289.85144	510.49478	353.28137	-419.98386	442.55469	321.37878	-328.00717	284.14499	340.16983	-294.44922	123.02061	318.19635	-367.87332	95.642677	257.63779	-300.71524	65.849953	196.03885	-421.53433	34.366627	405.17828	-357.52713	57.933754	420.26089	-362.88855	38.508842	463.36774	-76.699486	533.17615	401.07825	-203.05832	508.16595	392.60376	-62.251328	472.06796	389.9212	-131.38611	311.57571	383.78107	-46.251644	112.99469	318.91821	-134.10539	130.8573	339.1019	-86.177773	83.729958	236.56432	-34.799313	42.81414	450.69562	-103.95358	72.644028	454.31412	-119.01659	65.692543	487.78082
552	5.51	-267.90814	1366.0867	319.58688	-67.392982	1438.7483	252.23163	-431.00375	1396.5469	197.90176	-122.53297	992.84326	297.30051	-379.27808	996.62653	268.69873	-290.80533	1007.572	104.77489	-161.41118	1009.2368	118.49642	-416.43112	525.34869	318.70148	-289.72501	510.97638	355.38614	-419.88095	442.48181	323.71994	-328.25705	283.70633	341.09735	-294.71585	122.97826	318.68198	-367.94586	95.786072	257.73611	-300.75546	65.947304	196.08035	-421.681	34.295197	405.19244	-357.52332	57.917957	420.34897	-362.73123	38.46204	463.31903	-77.122978	530.00287	401.9183	-202.76514	503.64853	391.44333	-61.431248	469.06747	392.58426	-129.65828	307.64169	391.5578	-42.127647	107.21449	338.22314	-130.7733	124.83777	355.46793	-79.03067	78.289238	250.04652	-32.418964	40.902599	470.03918	-103.29918	69.504623	471.4848	-120.08408	60.704647	507.03873
553	5.52	-266.28964	1365.7037	323.77689	-65.376961	1437.85	257.11145	-428.83939	1396.0441	201.12558	-121.20796	992.26721	303.47937	-377.60342	996.51813	271.66745	-287.32928	1007.0503	108.79133	-158.10521	1008.307	124.09203	-416.4483	525.16034	321.68542	-289.80142	510.87402	359.37512	-419.77502	442.19736	326.36313	-327.61038	283.47812	343.27127	-294.58264	122.91991	318.73193	-367.97397	95.742592	257.89243	-300.79404	65.86377	196.0629	-421.6636	34.175789	405.29016	-357.8663	57.878872	420.32565	-362.80414	38.471889	463.30215	-76.500534	526.56799	402.21793	-202.27893	498.82895	389.54077	-60.060478	465.69659	394.55212	-128.23332	304.49008	398.43185	-38.031376	107.63166	352.19168	-128.77711	123.82584	366.49023	-72.89315	74.266357	262.9483	-32.752537	41.264763	485.14764	-103.29905	67.485435	485.06284	-120.47443	55.216438	521.35852
554	5.53	-264.58209	1365.1919	327.83356	-63.147804	1437.0792	262.22263	-426.07608	1395.4546	203.8459	-119.9219	991.63	309.55731	-375.88934	996.38116	274.63083	-283.54379	1006.521	112.76963	-154.53433	1007.2634	129.51498	-416.27097	524.77136	324.604	-290.12451	510.73157	364.1741	-419.20398	441.85696	328.78186	-327.69986	282.76724	343.84747	-294.48212	122.77316	318.90601	-367.97931	95.481735	258.07352	-300.81024	65.639954	195.96516	-421.77905	34.060207	405.35327	-357.97455	58.212738	420.16571	-362.90271	38.537834	463.215	-74.524902	524.12292	401.88483	-200.05569	494.20285	385.12869	-57.55975	462.65146	396.62006	-128.73618	302.18448	403.43539	-35.229622	104.14579	361.56357	-127.27414	121.39973	371.73239	-66.64315	70.720001	269.39856	-32.638123	41.075291	494.48981	-103.84005	65.71315	491.8761	-121.18349	51.361084	529.03577
555	5.54	-262.88589	1364.7303	331.74457	-60.775253	1436.2167	267.33362	-423.49994	1394.7966	206.49615	-118.89484	990.92853	314.9628	-374.05011	996.20557	277.39261	-279.62134	1005.8427	116.49088	-150.78786	1006.1042	134.69644	-415.80789	524.14575	327.28934	-289.82965	509.80902	368.71951	-419.33139	441.15729	331.23615	-327.64273	281.90103	345.24374	-294.5423	122.5745	318.85086	-367.96161	95.478249	257.89218	-300.81332	65.302734	195.83183	-421.81592	34.507893	404.90793	-357.89175	58.535564	419.78448	-362.84995	38.717754	463.09143	-73.028954	522.90613	403.78506	-196.46465	489.11847	380.84616	-56.929829	460.77942	399.84448	-126.26572	300.53	404.66339	-33.43354	103.66344	362.86157	-124.86548	120.59248	372.51758	-62.736744	69.12751	270.45944	-31.526812	40.201958	496.17532	-103.10239	64.184036	492.68317	-121.53611	49.304325	529.59039
556	5.55	-261.1373	1364.2858	335.55698	-58.177502	1435.4241	272.7135	-420.92233	1394.2239	209.02792	-116.90421	990.14905	321.17322	-372.27567	995.98547	279.89691	-275.65259	1005.0093	120.04179	-147.07193	1004.9859	139.53275	-415.05423	523.42493	329.68668	-290.491	508.96878	373.20889	-418.46893	440.46628	333.48175	-327.34842	281.07874	345.9006	-294.34225	122.31563	318.87155	-367.75522	95.199791	257.85156	-300.82004	64.864655	195.66684	-421.78116	34.499626	404.74069	-357.99576	58.571125	419.67783	-362.9845	39.119095	463.00342	-72.521919	522.15051	407.7742	-193.08449	486.7244	376.88046	-56.910442	459.88025	404.58105	-124.75688	299.1105	403.01974	-31.637426	102.59575	357.3764	-122.79943	120.87388	367.64087	-61.932186	66.156944	268.80545	-31.136169	40.213573	495.36285	-101.44924	64.656532	490.35947	-121.0886	51.722965	526.966
557	5.56	-259.35593	1363.964	339.26581	-55.69688	1434.5021	277.69077	-418.33246	1393.7407	211.52769	-115.98923	989.33289	325.70895	-370.6907	995.01489	282.53909	-271.75327	1003.8943	123.34991	-143.46519	1004.082	144.1608	-413.82648	522.66595	331.74176	-289.89191	507.10541	377.88828	-417.52335	439.80658	335.40479	-325.7796	280.84369	347.28165	-294.06165	122.0139	318.97263	-367.5275	95.061401	257.73758	-300.77551	64.416718	195.51358	-421.92633	34.34536	404.69299	-357.9386	58.526512	419.53815	-362.88364	38.955357	462.92401	-72.589966	522.07574	414.02628	-190.00452	487.40506	375.36703	-56.492855	459.39011	407.47632	-124.75346	298.14807	401.42252	-30.322739	101.83488	356.3197	-122.50134	119.72671	364.9501	-61.044125	64.734619	268.26096	-30.787756	39.831738	495.25958	-100.69957	64.372543	489.97034	-119.7863	52.887375	525.43353
